{"title":"University Challenge (2016) S46E03","uid":15405276,"size":517296851,"categoryP":"video","categoryS":"tv_shows","magnet":"?xt=urn:btih:2c2e7a23cd14d016033dcb099efa96c1ac5047a2&amp;dn=University+Challenge+%282016%29+S46E03&amp;tr=udp%3A%2F%2Ftracker.leechers-paradise.org%3A6969&amp;tr=udp%3A%2F%2Fzer0day.ch%3A1337&amp;tr=udp%3A%2F%2Fopen.demonii.com%3A1337&amp;tr=udp%3A%2F%2Ftracker.coppersurfer.tk%3A6969&amp;tr=udp%3A%2F%2Fexodus.desync.com%3A6969","seeders":1,"leechers":0,"uploader":"RoaElson","files":2,"time":1469497183,"description":"University Challenge 2016/17: Episode 3\r\n\r\nIn another first-round match, the students representing the University of Liverpool battle it out with the University of Warwick for a place in the second round.\r\n\r\nJeremy Paxman asks the questions.\r\n\r\nFirst shown: 8pm 25 July 2016\r\nDuration: 29 minutes\r\n\r\nMedia Info:-\r\n\r\nGeneral\r\nComplete name : /Users/David/Movies/TV Shows/University Challenge 2016/17/University Challenge (2016) S46E03/University Challenge (2016) S46E03.mp4\r\nFormat : MPEG-4\r\nFormat profile : Base Media\r\nCodec ID : isom (isom/iso2/avc1/mp41)\r\nFile size : 492 MiB\r\nDuration : 28mn 45s\r\nOverall bit rate mode : Variable\r\nOverall bit rate : 2 395 Kbps\r\n\r\nVideo\r\nID : 1\r\nFormat : AVC\r\nFormat/Info : Advanced Video Codec\r\nFormat profile :   \r\nFormat settings, CABAC : Yes\r\nFormat settings, ReFrames : 2 frames\r\nCodec ID : avc1\r\nCodec ID/Info : Advanced Video Coding\r\nDuration : 28mn 45s\r\nBit rate mode : Variable\r\nBit rate : 2 296 Kbps\r\nMaximum bit rate : 3 500 Kbps\r\nWidth : 1 280 pixels\r\nHeight : 720 pixels\r\nDisplay aspect ratio : 16:9\r\nFrame rate mode : Constant\r\nFrame rate : 25.000 fps\r\nColor space : YUV\r\nChroma subsampling : 4:2:0\r\nBit depth : 8 bits\r\nScan type : Progressive\r\nBits/(Pixel*Frame) : 0.100\r\nStream size : 472 MiB (96%)\r\n\r\nAudio\r\nID : 2\r\nFormat : AAC\r\nFormat/Info : Advanced Audio Codec\r\nFormat profile : LC\r\nCodec ID : 40\r\nDuration : 28mn 44s\r\nBit rate mode : Constant\r\nBit rate : 93.5 Kbps\r\nChannel(s) : 2 channels\r\nChannel positions : Front: L R\r\nSampling rate : 48.0 KHz\r\nFrame rate : 46.875 fps (1024 spf)\r\nCompression mode : Lossy\r\nStream size : 19.2 MiB (4%)","torrent":{"xt":"urn:btih:2c2e7a23cd14d016033dcb099efa96c1ac5047a2","amp;dn":"University+Challenge+%282016%29+S46E03","amp;tr":["udp%3A%2F%2Ftracker.leechers-paradise.org%3A6969","udp%3A%2F%2Fzer0day.ch%3A1337","udp%3A%2F%2Fopen.demonii.com%3A1337","udp%3A%2F%2Ftracker.coppersurfer.tk%3A6969","udp%3A%2F%2Fexodus.desync.com%3A6969"],"infoHash":"2c2e7a23cd14d016033dcb099efa96c1ac5047a2","infoHashBuffer":{"type":"Buffer","data":[44,46,122,35,205,20,208,22,3,61,203,9,158,250,150,193,172,80,71,162]},"announce":[],"urlList":[]}}